<mxfile host="Electron" modified="2024-04-06T04:03:31.758Z" agent="Mozilla/5.0 (Windows NT 10.0; Win64; x64) AppleWebKit/537.36 (KHTML, like Gecko) draw.io/21.2.1 Chrome/112.0.5615.87 Electron/24.1.2 Safari/537.36" etag="vefbCfPpBBBcTz1O9z1t" version="21.2.1" type="device">
  <diagram name="第 1 页" id="3em1f3uYiBTEqwCZCkLp">
    <mxGraphModel dx="1285" dy="866" grid="1" gridSize="10" guides="1" tooltips="1" connect="1" arrows="1" fold="1" page="1" pageScale="1" pageWidth="3300" pageHeight="2339" math="0" shadow="0">
      <root>
        <mxCell id="0" />
        <mxCell id="1" parent="0" />
        <mxCell id="dLMh59r50Md-Nv6aXzin-7" style="edgeStyle=orthogonalEdgeStyle;rounded=0;orthogonalLoop=1;jettySize=auto;html=1;entryX=0;entryY=0.25;entryDx=0;entryDy=0;endArrow=none;endFill=0;" edge="1" parent="1" source="dLMh59r50Md-Nv6aXzin-4" target="dLMh59r50Md-Nv6aXzin-1">
          <mxGeometry relative="1" as="geometry" />
        </mxCell>
        <mxCell id="dLMh59r50Md-Nv6aXzin-4" value="clk_t" style="text;html=1;align=center;verticalAlign=middle;resizable=0;points=[];autosize=1;strokeColor=none;fillColor=none;" vertex="1" parent="1">
          <mxGeometry x="105" y="325" width="50" height="30" as="geometry" />
        </mxCell>
        <mxCell id="dLMh59r50Md-Nv6aXzin-6" style="rounded=0;orthogonalLoop=1;jettySize=auto;html=1;entryX=0;entryY=0.75;entryDx=0;entryDy=0;jumpStyle=gap;endArrow=none;endFill=0;" edge="1" parent="1" source="dLMh59r50Md-Nv6aXzin-32" target="dLMh59r50Md-Nv6aXzin-1">
          <mxGeometry relative="1" as="geometry">
            <Array as="points">
              <mxPoint x="240" y="380" />
            </Array>
          </mxGeometry>
        </mxCell>
        <mxCell id="dLMh59r50Md-Nv6aXzin-31" style="edgeStyle=orthogonalEdgeStyle;rounded=0;orthogonalLoop=1;jettySize=auto;html=1;jumpStyle=none;shadow=0;strokeColor=default;metaEdit=0;orthogonal=0;snapToPoint=0;fixDash=0;flowAnimation=0;enumerate=0;comic=0;backgroundOutline=0;endArrow=none;endFill=0;" edge="1" parent="1" source="dLMh59r50Md-Nv6aXzin-63" target="dLMh59r50Md-Nv6aXzin-15">
          <mxGeometry relative="1" as="geometry">
            <Array as="points">
              <mxPoint x="210" y="380" />
              <mxPoint x="210" y="430" />
              <mxPoint x="460" y="430" />
              <mxPoint x="460" y="370" />
            </Array>
          </mxGeometry>
        </mxCell>
        <mxCell id="dLMh59r50Md-Nv6aXzin-5" value="rst_t" style="text;html=1;align=center;verticalAlign=middle;resizable=0;points=[];autosize=1;strokeColor=none;fillColor=none;" vertex="1" parent="1">
          <mxGeometry x="105" y="365" width="50" height="30" as="geometry" />
        </mxCell>
        <mxCell id="dLMh59r50Md-Nv6aXzin-25" value="" style="group" vertex="1" connectable="0" parent="1">
          <mxGeometry x="290" y="290" width="140" height="110" as="geometry" />
        </mxCell>
        <mxCell id="dLMh59r50Md-Nv6aXzin-1" value="freq_div" style="rounded=0;whiteSpace=wrap;html=1;movable=1;resizable=1;rotatable=1;deletable=1;editable=1;locked=0;connectable=1;" vertex="1" parent="dLMh59r50Md-Nv6aXzin-25">
          <mxGeometry y="30" width="140" height="80" as="geometry" />
        </mxCell>
        <mxCell id="dLMh59r50Md-Nv6aXzin-3" value="fd" style="text;html=1;align=center;verticalAlign=middle;resizable=1;points=[];autosize=1;strokeColor=none;fillColor=none;movable=1;rotatable=1;deletable=1;editable=1;locked=0;connectable=1;" vertex="1" parent="dLMh59r50Md-Nv6aXzin-25">
          <mxGeometry x="55" width="30" height="30" as="geometry" />
        </mxCell>
        <mxCell id="dLMh59r50Md-Nv6aXzin-8" value="clk" style="text;html=1;align=center;verticalAlign=middle;resizable=1;points=[];autosize=1;strokeColor=none;fillColor=none;movable=1;rotatable=1;deletable=1;editable=1;locked=0;connectable=1;" vertex="1" parent="dLMh59r50Md-Nv6aXzin-25">
          <mxGeometry y="35" width="40" height="30" as="geometry" />
        </mxCell>
        <mxCell id="dLMh59r50Md-Nv6aXzin-9" value="rst" style="text;html=1;align=center;verticalAlign=middle;resizable=1;points=[];autosize=1;strokeColor=none;fillColor=none;movable=1;rotatable=1;deletable=1;editable=1;locked=0;connectable=1;" vertex="1" parent="dLMh59r50Md-Nv6aXzin-25">
          <mxGeometry y="75" width="40" height="30" as="geometry" />
        </mxCell>
        <mxCell id="dLMh59r50Md-Nv6aXzin-10" value="out_clk" style="text;html=1;align=center;verticalAlign=middle;resizable=1;points=[];autosize=1;strokeColor=none;fillColor=none;movable=1;rotatable=1;deletable=1;editable=1;locked=0;connectable=1;" vertex="1" parent="dLMh59r50Md-Nv6aXzin-25">
          <mxGeometry x="80" y="35" width="60" height="30" as="geometry" />
        </mxCell>
        <mxCell id="dLMh59r50Md-Nv6aXzin-26" value="" style="group" vertex="1" connectable="0" parent="1">
          <mxGeometry x="531" y="290" width="125" height="180" as="geometry" />
        </mxCell>
        <mxCell id="dLMh59r50Md-Nv6aXzin-12" value="counter" style="rounded=0;whiteSpace=wrap;html=1;" vertex="1" parent="dLMh59r50Md-Nv6aXzin-26">
          <mxGeometry x="5" y="30" width="120" height="150" as="geometry" />
        </mxCell>
        <mxCell id="dLMh59r50Md-Nv6aXzin-13" value="c" style="text;html=1;align=center;verticalAlign=middle;resizable=0;points=[];autosize=1;strokeColor=none;fillColor=none;" vertex="1" parent="dLMh59r50Md-Nv6aXzin-26">
          <mxGeometry x="50" width="30" height="30" as="geometry" />
        </mxCell>
        <mxCell id="dLMh59r50Md-Nv6aXzin-14" value="clk" style="text;html=1;align=center;verticalAlign=middle;resizable=0;points=[];autosize=1;strokeColor=none;fillColor=none;" vertex="1" parent="dLMh59r50Md-Nv6aXzin-26">
          <mxGeometry x="5" y="35" width="40" height="30" as="geometry" />
        </mxCell>
        <mxCell id="dLMh59r50Md-Nv6aXzin-15" value="rst" style="text;html=1;align=center;verticalAlign=middle;resizable=0;points=[];autosize=1;strokeColor=none;fillColor=none;" vertex="1" parent="dLMh59r50Md-Nv6aXzin-26">
          <mxGeometry x="5" y="65" width="40" height="30" as="geometry" />
        </mxCell>
        <mxCell id="dLMh59r50Md-Nv6aXzin-16" value="en" style="text;html=1;align=center;verticalAlign=middle;resizable=0;points=[];autosize=1;strokeColor=none;fillColor=none;" vertex="1" parent="dLMh59r50Md-Nv6aXzin-26">
          <mxGeometry x="5" y="90" width="40" height="30" as="geometry" />
        </mxCell>
        <mxCell id="dLMh59r50Md-Nv6aXzin-17" value="prst" style="text;html=1;align=center;verticalAlign=middle;resizable=0;points=[];autosize=1;strokeColor=none;fillColor=none;" vertex="1" parent="dLMh59r50Md-Nv6aXzin-26">
          <mxGeometry x="5" y="120" width="40" height="30" as="geometry" />
        </mxCell>
        <mxCell id="dLMh59r50Md-Nv6aXzin-18" value="pval" style="text;html=1;align=center;verticalAlign=middle;resizable=0;points=[];autosize=1;strokeColor=none;fillColor=none;" vertex="1" parent="dLMh59r50Md-Nv6aXzin-26">
          <mxGeometry x="5" y="150" width="50" height="30" as="geometry" />
        </mxCell>
        <mxCell id="dLMh59r50Md-Nv6aXzin-19" value="cnt" style="text;html=1;align=center;verticalAlign=middle;resizable=0;points=[];autosize=1;strokeColor=none;fillColor=none;" vertex="1" parent="dLMh59r50Md-Nv6aXzin-26">
          <mxGeometry x="85" y="50" width="40" height="30" as="geometry" />
        </mxCell>
        <mxCell id="dLMh59r50Md-Nv6aXzin-33" value="" style="rounded=0;orthogonalLoop=1;jettySize=auto;html=1;entryDx=0;entryDy=0;jumpStyle=gap;endArrow=none;endFill=0;" edge="1" parent="1" source="dLMh59r50Md-Nv6aXzin-5" target="dLMh59r50Md-Nv6aXzin-32">
          <mxGeometry relative="1" as="geometry">
            <mxPoint x="155" y="380" as="sourcePoint" />
            <mxPoint x="290" y="380" as="targetPoint" />
            <Array as="points" />
          </mxGeometry>
        </mxCell>
        <mxCell id="dLMh59r50Md-Nv6aXzin-32" value="" style="shape=waypoint;sketch=0;size=6;pointerEvents=1;points=[];fillColor=none;resizable=0;rotatable=0;perimeter=centerPerimeter;snapToPoint=1;" vertex="1" parent="1">
          <mxGeometry x="200" y="370" width="20" height="20" as="geometry" />
        </mxCell>
        <mxCell id="dLMh59r50Md-Nv6aXzin-36" style="edgeStyle=orthogonalEdgeStyle;rounded=0;orthogonalLoop=1;jettySize=auto;html=1;endArrow=none;endFill=0;" edge="1" parent="1" source="dLMh59r50Md-Nv6aXzin-35" target="dLMh59r50Md-Nv6aXzin-14">
          <mxGeometry relative="1" as="geometry">
            <Array as="points">
              <mxPoint x="210" y="280" />
              <mxPoint x="470" y="280" />
              <mxPoint x="470" y="340" />
            </Array>
          </mxGeometry>
        </mxCell>
        <mxCell id="dLMh59r50Md-Nv6aXzin-35" value="" style="shape=waypoint;sketch=0;size=6;pointerEvents=1;points=[];fillColor=none;resizable=0;rotatable=0;perimeter=centerPerimeter;snapToPoint=1;" vertex="1" parent="1">
          <mxGeometry x="200" y="330" width="20" height="20" as="geometry" />
        </mxCell>
        <mxCell id="dLMh59r50Md-Nv6aXzin-37" style="edgeStyle=orthogonalEdgeStyle;rounded=0;orthogonalLoop=1;jettySize=auto;html=1;entryX=0.01;entryY=0.587;entryDx=0;entryDy=0;entryPerimeter=0;jumpStyle=arc;endArrow=none;endFill=0;" edge="1" parent="1" source="dLMh59r50Md-Nv6aXzin-10" target="dLMh59r50Md-Nv6aXzin-16">
          <mxGeometry relative="1" as="geometry">
            <Array as="points">
              <mxPoint x="450" y="340" />
              <mxPoint x="450" y="398" />
            </Array>
          </mxGeometry>
        </mxCell>
        <mxCell id="dLMh59r50Md-Nv6aXzin-43" style="edgeStyle=orthogonalEdgeStyle;rounded=0;orthogonalLoop=1;jettySize=auto;html=1;endArrow=none;endFill=0;" edge="1" parent="1" source="dLMh59r50Md-Nv6aXzin-38" target="dLMh59r50Md-Nv6aXzin-17">
          <mxGeometry relative="1" as="geometry">
            <Array as="points">
              <mxPoint x="470" y="455" />
              <mxPoint x="470" y="425" />
            </Array>
          </mxGeometry>
        </mxCell>
        <mxCell id="dLMh59r50Md-Nv6aXzin-38" value="prst_t" style="text;html=1;align=center;verticalAlign=middle;resizable=0;points=[];autosize=1;strokeColor=none;fillColor=none;" vertex="1" parent="1">
          <mxGeometry x="105" y="440" width="50" height="30" as="geometry" />
        </mxCell>
        <mxCell id="dLMh59r50Md-Nv6aXzin-44" style="edgeStyle=orthogonalEdgeStyle;rounded=0;orthogonalLoop=1;jettySize=auto;html=1;entryX=-0.007;entryY=0.461;entryDx=0;entryDy=0;entryPerimeter=0;endArrow=none;endFill=0;" edge="1" parent="1" source="dLMh59r50Md-Nv6aXzin-39" target="dLMh59r50Md-Nv6aXzin-18">
          <mxGeometry relative="1" as="geometry">
            <Array as="points">
              <mxPoint x="480" y="505" />
              <mxPoint x="480" y="454" />
            </Array>
          </mxGeometry>
        </mxCell>
        <mxCell id="dLMh59r50Md-Nv6aXzin-58" value="11 downto 0" style="edgeLabel;html=1;align=center;verticalAlign=middle;resizable=0;points=[];" vertex="1" connectable="0" parent="dLMh59r50Md-Nv6aXzin-44">
          <mxGeometry x="-0.2251" y="-3" relative="1" as="geometry">
            <mxPoint as="offset" />
          </mxGeometry>
        </mxCell>
        <mxCell id="dLMh59r50Md-Nv6aXzin-39" value="pvalue_t" style="text;html=1;align=center;verticalAlign=middle;resizable=0;points=[];autosize=1;strokeColor=none;fillColor=none;" vertex="1" parent="1">
          <mxGeometry x="95" y="490" width="70" height="30" as="geometry" />
        </mxCell>
        <mxCell id="dLMh59r50Md-Nv6aXzin-40" value="cnt_t" style="text;html=1;align=center;verticalAlign=middle;resizable=0;points=[];autosize=1;strokeColor=none;fillColor=none;" vertex="1" parent="1">
          <mxGeometry x="1125" y="270" width="50" height="30" as="geometry" />
        </mxCell>
        <mxCell id="dLMh59r50Md-Nv6aXzin-41" value="anode_t" style="text;html=1;align=center;verticalAlign=middle;resizable=0;points=[];autosize=1;strokeColor=none;fillColor=none;" vertex="1" parent="1">
          <mxGeometry x="1115" y="370" width="70" height="30" as="geometry" />
        </mxCell>
        <mxCell id="dLMh59r50Md-Nv6aXzin-42" value="cathode_t" style="text;html=1;align=center;verticalAlign=middle;resizable=0;points=[];autosize=1;strokeColor=none;fillColor=none;" vertex="1" parent="1">
          <mxGeometry x="1110" y="450" width="80" height="30" as="geometry" />
        </mxCell>
        <mxCell id="dLMh59r50Md-Nv6aXzin-59" value="" style="group" vertex="1" connectable="0" parent="1">
          <mxGeometry x="830" y="310" width="195" height="200" as="geometry" />
        </mxCell>
        <mxCell id="dLMh59r50Md-Nv6aXzin-45" value="sevenSegDisplay" style="whiteSpace=wrap;html=1;" vertex="1" parent="dLMh59r50Md-Nv6aXzin-59">
          <mxGeometry y="30" width="190" height="170" as="geometry" />
        </mxCell>
        <mxCell id="dLMh59r50Md-Nv6aXzin-46" value="s" style="text;html=1;align=center;verticalAlign=middle;resizable=0;points=[];autosize=1;strokeColor=none;fillColor=none;" vertex="1" parent="dLMh59r50Md-Nv6aXzin-59">
          <mxGeometry x="80" width="30" height="30" as="geometry" />
        </mxCell>
        <mxCell id="dLMh59r50Md-Nv6aXzin-48" value="clk" style="text;html=1;align=center;verticalAlign=middle;resizable=0;points=[];autosize=1;strokeColor=none;fillColor=none;" vertex="1" parent="dLMh59r50Md-Nv6aXzin-59">
          <mxGeometry y="40" width="40" height="30" as="geometry" />
        </mxCell>
        <mxCell id="dLMh59r50Md-Nv6aXzin-49" value="rst" style="text;html=1;align=center;verticalAlign=middle;resizable=0;points=[];autosize=1;strokeColor=none;fillColor=none;" vertex="1" parent="dLMh59r50Md-Nv6aXzin-59">
          <mxGeometry y="65" width="40" height="30" as="geometry" />
        </mxCell>
        <mxCell id="dLMh59r50Md-Nv6aXzin-50" value="A" style="text;html=1;align=center;verticalAlign=middle;resizable=0;points=[];autosize=1;strokeColor=none;fillColor=none;" vertex="1" parent="dLMh59r50Md-Nv6aXzin-59">
          <mxGeometry y="95" width="30" height="30" as="geometry" />
        </mxCell>
        <mxCell id="dLMh59r50Md-Nv6aXzin-52" value="B" style="text;html=1;align=center;verticalAlign=middle;resizable=0;points=[];autosize=1;strokeColor=none;fillColor=none;" vertex="1" parent="dLMh59r50Md-Nv6aXzin-59">
          <mxGeometry y="125" width="30" height="30" as="geometry" />
        </mxCell>
        <mxCell id="dLMh59r50Md-Nv6aXzin-53" value="C" style="text;html=1;align=center;verticalAlign=middle;resizable=0;points=[];autosize=1;strokeColor=none;fillColor=none;" vertex="1" parent="dLMh59r50Md-Nv6aXzin-59">
          <mxGeometry y="155" width="30" height="30" as="geometry" />
        </mxCell>
        <mxCell id="dLMh59r50Md-Nv6aXzin-55" value="anode" style="text;html=1;align=center;verticalAlign=middle;resizable=0;points=[];autosize=1;strokeColor=none;fillColor=none;" vertex="1" parent="dLMh59r50Md-Nv6aXzin-59">
          <mxGeometry x="130" y="60" width="60" height="30" as="geometry" />
        </mxCell>
        <mxCell id="dLMh59r50Md-Nv6aXzin-56" value="cathode" style="text;html=1;align=center;verticalAlign=middle;resizable=0;points=[];autosize=1;strokeColor=none;fillColor=none;" vertex="1" parent="dLMh59r50Md-Nv6aXzin-59">
          <mxGeometry x="120" y="140" width="70" height="30" as="geometry" />
        </mxCell>
        <mxCell id="dLMh59r50Md-Nv6aXzin-61" style="edgeStyle=orthogonalEdgeStyle;rounded=0;orthogonalLoop=1;jettySize=auto;html=1;endArrow=none;endFill=0;" edge="1" parent="1" source="dLMh59r50Md-Nv6aXzin-60" target="dLMh59r50Md-Nv6aXzin-48">
          <mxGeometry relative="1" as="geometry">
            <Array as="points">
              <mxPoint x="770" y="280" />
              <mxPoint x="770" y="365" />
            </Array>
          </mxGeometry>
        </mxCell>
        <mxCell id="dLMh59r50Md-Nv6aXzin-60" value="" style="shape=waypoint;sketch=0;size=6;pointerEvents=1;points=[];fillColor=none;resizable=0;rotatable=0;perimeter=centerPerimeter;snapToPoint=1;" vertex="1" parent="1">
          <mxGeometry x="460" y="270" width="20" height="20" as="geometry" />
        </mxCell>
        <mxCell id="dLMh59r50Md-Nv6aXzin-64" value="" style="edgeStyle=orthogonalEdgeStyle;rounded=0;orthogonalLoop=1;jettySize=auto;html=1;jumpStyle=none;shadow=0;strokeColor=default;metaEdit=0;orthogonal=0;snapToPoint=0;fixDash=0;flowAnimation=0;enumerate=0;comic=0;backgroundOutline=0;endArrow=none;endFill=0;" edge="1" parent="1" source="dLMh59r50Md-Nv6aXzin-5" target="dLMh59r50Md-Nv6aXzin-63">
          <mxGeometry relative="1" as="geometry">
            <mxPoint x="155" y="380" as="sourcePoint" />
            <mxPoint x="550" y="370" as="targetPoint" />
            <Array as="points" />
          </mxGeometry>
        </mxCell>
        <mxCell id="dLMh59r50Md-Nv6aXzin-82" style="edgeStyle=orthogonalEdgeStyle;rounded=0;orthogonalLoop=1;jettySize=auto;html=1;entryX=0;entryY=0.5;entryDx=0;entryDy=0;entryPerimeter=0;jumpStyle=arc;endArrow=none;endFill=0;" edge="1" parent="1" source="dLMh59r50Md-Nv6aXzin-63" target="dLMh59r50Md-Nv6aXzin-49">
          <mxGeometry relative="1" as="geometry">
            <Array as="points">
              <mxPoint x="210" y="540" />
              <mxPoint x="680" y="540" />
              <mxPoint x="680" y="390" />
            </Array>
          </mxGeometry>
        </mxCell>
        <mxCell id="dLMh59r50Md-Nv6aXzin-63" value="" style="shape=waypoint;sketch=0;size=6;pointerEvents=1;points=[];fillColor=none;resizable=0;rotatable=0;perimeter=centerPerimeter;snapToPoint=1;" vertex="1" parent="1">
          <mxGeometry x="200" y="420" width="20" height="20" as="geometry" />
        </mxCell>
        <mxCell id="dLMh59r50Md-Nv6aXzin-84" style="edgeStyle=orthogonalEdgeStyle;rounded=0;orthogonalLoop=1;jettySize=auto;html=1;jumpStyle=arc;endArrow=none;endFill=0;" edge="1" parent="1" source="dLMh59r50Md-Nv6aXzin-19" target="dLMh59r50Md-Nv6aXzin-50">
          <mxGeometry relative="1" as="geometry">
            <Array as="points">
              <mxPoint x="740" y="355" />
              <mxPoint x="740" y="420" />
            </Array>
          </mxGeometry>
        </mxCell>
        <mxCell id="dLMh59r50Md-Nv6aXzin-92" value="11 downto 8" style="edgeLabel;html=1;align=center;verticalAlign=middle;resizable=0;points=[];" vertex="1" connectable="0" parent="dLMh59r50Md-Nv6aXzin-84">
          <mxGeometry x="0.5347" y="2" relative="1" as="geometry">
            <mxPoint x="3" y="2" as="offset" />
          </mxGeometry>
        </mxCell>
        <mxCell id="dLMh59r50Md-Nv6aXzin-85" style="edgeStyle=orthogonalEdgeStyle;rounded=0;orthogonalLoop=1;jettySize=auto;html=1;jumpStyle=arc;endArrow=none;endFill=0;" edge="1" parent="1" source="dLMh59r50Md-Nv6aXzin-19" target="dLMh59r50Md-Nv6aXzin-52">
          <mxGeometry relative="1" as="geometry">
            <Array as="points">
              <mxPoint x="740" y="355" />
              <mxPoint x="740" y="450" />
            </Array>
          </mxGeometry>
        </mxCell>
        <mxCell id="dLMh59r50Md-Nv6aXzin-93" value="7 downto 4" style="edgeLabel;html=1;align=center;verticalAlign=middle;resizable=0;points=[];" vertex="1" connectable="0" parent="dLMh59r50Md-Nv6aXzin-85">
          <mxGeometry x="0.5875" y="2" relative="1" as="geometry">
            <mxPoint as="offset" />
          </mxGeometry>
        </mxCell>
        <mxCell id="dLMh59r50Md-Nv6aXzin-86" style="edgeStyle=orthogonalEdgeStyle;rounded=0;orthogonalLoop=1;jettySize=auto;html=1;jumpStyle=arc;endArrow=none;endFill=0;" edge="1" parent="1" source="dLMh59r50Md-Nv6aXzin-89" target="dLMh59r50Md-Nv6aXzin-53">
          <mxGeometry relative="1" as="geometry">
            <Array as="points">
              <mxPoint x="740" y="355" />
              <mxPoint x="740" y="480" />
            </Array>
          </mxGeometry>
        </mxCell>
        <mxCell id="dLMh59r50Md-Nv6aXzin-94" value="3 downto 0" style="edgeLabel;html=1;align=center;verticalAlign=middle;resizable=0;points=[];" vertex="1" connectable="0" parent="dLMh59r50Md-Nv6aXzin-86">
          <mxGeometry x="0.6596" y="-1" relative="1" as="geometry">
            <mxPoint as="offset" />
          </mxGeometry>
        </mxCell>
        <mxCell id="dLMh59r50Md-Nv6aXzin-88" value="" style="edgeStyle=orthogonalEdgeStyle;rounded=0;orthogonalLoop=1;jettySize=auto;html=1;jumpStyle=arc;endArrow=none;endFill=0;" edge="1" parent="1" source="dLMh59r50Md-Nv6aXzin-19" target="dLMh59r50Md-Nv6aXzin-87">
          <mxGeometry relative="1" as="geometry">
            <mxPoint x="670" y="355" as="sourcePoint" />
            <mxPoint x="815" y="480" as="targetPoint" />
            <Array as="points" />
          </mxGeometry>
        </mxCell>
        <mxCell id="dLMh59r50Md-Nv6aXzin-91" value="11 downto 0" style="edgeLabel;html=1;align=center;verticalAlign=middle;resizable=0;points=[];" vertex="1" connectable="0" parent="dLMh59r50Md-Nv6aXzin-88">
          <mxGeometry x="-0.6161" y="2" relative="1" as="geometry">
            <mxPoint x="9" y="2" as="offset" />
          </mxGeometry>
        </mxCell>
        <mxCell id="dLMh59r50Md-Nv6aXzin-87" value="" style="shape=waypoint;sketch=0;size=6;pointerEvents=1;points=[];fillColor=none;resizable=0;rotatable=0;perimeter=centerPerimeter;snapToPoint=1;" vertex="1" parent="1">
          <mxGeometry x="730" y="410" width="20" height="20" as="geometry" />
        </mxCell>
        <mxCell id="dLMh59r50Md-Nv6aXzin-90" value="" style="edgeStyle=orthogonalEdgeStyle;rounded=0;orthogonalLoop=1;jettySize=auto;html=1;endArrow=none;endFill=0;" edge="1" parent="1" source="dLMh59r50Md-Nv6aXzin-87" target="dLMh59r50Md-Nv6aXzin-89">
          <mxGeometry relative="1" as="geometry">
            <mxPoint x="740" y="420" as="sourcePoint" />
            <mxPoint x="815" y="480" as="targetPoint" />
            <Array as="points" />
          </mxGeometry>
        </mxCell>
        <mxCell id="dLMh59r50Md-Nv6aXzin-89" value="" style="shape=waypoint;sketch=0;size=6;pointerEvents=1;points=[];fillColor=none;resizable=0;rotatable=0;perimeter=centerPerimeter;snapToPoint=1;" vertex="1" parent="1">
          <mxGeometry x="730" y="440" width="20" height="20" as="geometry" />
        </mxCell>
        <mxCell id="dLMh59r50Md-Nv6aXzin-95" style="edgeStyle=orthogonalEdgeStyle;rounded=0;orthogonalLoop=1;jettySize=auto;html=1;endArrow=none;endFill=0;" edge="1" parent="1" source="dLMh59r50Md-Nv6aXzin-55" target="dLMh59r50Md-Nv6aXzin-41">
          <mxGeometry relative="1" as="geometry" />
        </mxCell>
        <mxCell id="dLMh59r50Md-Nv6aXzin-97" value="7 downto 0" style="edgeLabel;html=1;align=center;verticalAlign=middle;resizable=0;points=[];" vertex="1" connectable="0" parent="dLMh59r50Md-Nv6aXzin-95">
          <mxGeometry x="-0.3065" y="2" relative="1" as="geometry">
            <mxPoint x="7" y="2" as="offset" />
          </mxGeometry>
        </mxCell>
        <mxCell id="dLMh59r50Md-Nv6aXzin-96" style="edgeStyle=orthogonalEdgeStyle;rounded=0;orthogonalLoop=1;jettySize=auto;html=1;endArrow=none;endFill=0;" edge="1" parent="1" source="dLMh59r50Md-Nv6aXzin-56" target="dLMh59r50Md-Nv6aXzin-42">
          <mxGeometry relative="1" as="geometry" />
        </mxCell>
        <mxCell id="dLMh59r50Md-Nv6aXzin-98" value="6 downto 0" style="edgeLabel;html=1;align=center;verticalAlign=middle;resizable=0;points=[];" vertex="1" connectable="0" parent="dLMh59r50Md-Nv6aXzin-96">
          <mxGeometry x="-0.2776" y="1" relative="1" as="geometry">
            <mxPoint x="4" y="1" as="offset" />
          </mxGeometry>
        </mxCell>
        <mxCell id="dLMh59r50Md-Nv6aXzin-100" style="edgeStyle=orthogonalEdgeStyle;rounded=0;orthogonalLoop=1;jettySize=auto;html=1;endArrow=none;endFill=0;jumpStyle=arc;" edge="1" parent="1" source="dLMh59r50Md-Nv6aXzin-99" target="dLMh59r50Md-Nv6aXzin-40">
          <mxGeometry relative="1" as="geometry">
            <Array as="points">
              <mxPoint x="790" y="355" />
              <mxPoint x="790" y="285" />
            </Array>
          </mxGeometry>
        </mxCell>
        <mxCell id="dLMh59r50Md-Nv6aXzin-101" value="11 downto 0" style="edgeLabel;html=1;align=center;verticalAlign=middle;resizable=0;points=[];" vertex="1" connectable="0" parent="dLMh59r50Md-Nv6aXzin-100">
          <mxGeometry x="0.2164" y="-1" relative="1" as="geometry">
            <mxPoint as="offset" />
          </mxGeometry>
        </mxCell>
        <mxCell id="dLMh59r50Md-Nv6aXzin-99" value="" style="shape=waypoint;sketch=0;size=6;pointerEvents=1;points=[];fillColor=none;resizable=0;rotatable=0;perimeter=centerPerimeter;snapToPoint=1;" vertex="1" parent="1">
          <mxGeometry x="730" y="345" width="20" height="20" as="geometry" />
        </mxCell>
      </root>
    </mxGraphModel>
  </diagram>
</mxfile>
